<svg id="The_Pools_Logo_2023_White" data-name="The Pools Logo 2023 White" xmlns="http://www.w3.org/2000/svg" width="105.1" height="22.2" viewBox="0 0 105.1 22.2">
  <g id="Group_39936" data-name="Group 39936">
    <g id="Group_52644">
      <path id="Path_141935" d="M1.4,13.9a5.663,5.663,0,0,1,.3-1.8l1-3.7H.2L1.3,4.3H3.8l.9-3.2H10L9.1,4.3h3L11,8.4H8l-.7,2.7a3.553,3.553,0,0,0-.2,1c0,.5.3.8,1.1.8a4.013,4.013,0,0,0,1.5-.3L8.6,17a12.588,12.588,0,0,1-2.7.4c-3,0-4.5-1.2-4.5-3.5" fill="#fff"/>
      <path id="Path_141936" d="M13.9,0h5.3L17.6,5.9A4.736,4.736,0,0,1,21.4,4c2.3,0,3.7,1.5,3.7,3.9a8.329,8.329,0,0,1-.3,2.2l-1.9,7H17.6l1.7-6.4a3.083,3.083,0,0,0,.1-1,.9.9,0,0,0-.9-1.1h-.2c-1.1,0-1.6.7-2,2.1l-1.7,6.4H9.3Z" fill="#fff"/>
      <path id="Path_141937" d="M31.7,13.6a4,4,0,0,0,2.6-1l2.5,2.7a8.052,8.052,0,0,1-5.5,2.1c-3.9,0-6.3-2.3-6.3-5.6A7.683,7.683,0,0,1,32.5,4h.2c4.2,0,5.6,2.9,5.6,5.5a6.722,6.722,0,0,1-.4,2.4H29.7a1.71,1.71,0,0,0,1.8,1.7c.1.1.2.1.2,0m2-4a1.268,1.268,0,0,0,.1-.6,1.493,1.493,0,0,0-1.3-1.4h-.1a2.459,2.459,0,0,0-2.3,1.9l3.6.1Z" fill="#fff"/>
      <path id="Path_141938" d="M44.5,4.3h5.3l-.4,1.3A5.233,5.233,0,0,1,53.1,4c2.3,0,4.2,1.8,4.2,5,0,4.7-3,8.4-6.7,8.4a4.183,4.183,0,0,1-3.7-1.9l-1.5,5.4H40ZM52,10.2a1.627,1.627,0,0,0-1.6-1.8h-.1a2.7,2.7,0,0,0-2.5,2.9,1.627,1.627,0,0,0,1.6,1.8h.1A2.905,2.905,0,0,0,52,10.2" fill="#fff"/>
      <path id="Path_141939" d="M57.5,11.4A7.492,7.492,0,0,1,65.1,4h0c4,0,6.4,2.6,6.4,5.9a7.489,7.489,0,0,1-7.6,7.4h0c-4.1.1-6.4-2.5-6.4-5.9m9-1.2A1.613,1.613,0,0,0,65,8.4h-.2a2.6,2.6,0,0,0-2.3,2.9,1.627,1.627,0,0,0,1.6,1.8h.2c1.2,0,2.2-1.4,2.2-2.9" fill="#fff"/>
      <path id="Path_141940" d="M71.8,11.4A7.556,7.556,0,0,1,79.4,4h0c4,0,6.4,2.6,6.4,5.9a7.489,7.489,0,0,1-7.6,7.4h0c-4.1.1-6.4-2.5-6.4-5.9m9-1.2a1.613,1.613,0,0,0-1.5-1.8h-.2a2.6,2.6,0,0,0-2.3,2.9,1.627,1.627,0,0,0,1.6,1.8h.2c1.2,0,2.2-1.4,2.2-2.9" fill="#fff"/>
      <path id="Path_141941" d="M89.4,0h5.3L90.1,17.1H84.8Z" fill="#fff"/>
      <path id="Path_141942" d="M91,15.3l2.3-3A8.34,8.34,0,0,0,97.9,14c.5,0,.7-.2.7-.4,0-.4-.4-.6-2-1.2-2.1-.7-3.5-1.7-3.5-3.7,0-2.6,2.2-4.6,6-4.6a9.872,9.872,0,0,1,6,1.8l-2.3,3a8.015,8.015,0,0,0-3.9-1.4c-.6,0-.8.2-.8.4,0,.4.3.5,1.8,1.1,2,.7,3.6,1.6,3.6,3.9,0,2.1-1.5,4.6-5.8,4.6A12.176,12.176,0,0,1,91,15.3" fill="#fff"/>
      <path id="Path_141943" d="M0,21.5c17-.6,25-.8,39.1-.8l.4-1.7c-28,1.3-27.6,1.3-39.5,2.5" fill="#fff"/>
      <path id="Path_141944" d="M51.4,18.9c-1.7.1-3,.1-4.6.2l-.5,1.8c37.7-.1,51.6,1.3,51.6,1.3l4.7-3.2s-20.3-1.1-51.2-.1" fill="#fff"/>
    </g>
  </g>
</svg>
